<svg width="28" height="28" viewBox="0 0 28 28" fill="none" xmlns="http://www.w3.org/2000/svg">
<g id="Group 117">
<path id="Vector" d="M14.4316 4.73535C14.4316 4.6784 14.4418 4.62367 14.4637 4.57116C14.4849 4.51865 14.5155 4.4728 14.5549 4.43212C14.595 4.39218 14.6402 4.36112 14.692 4.33967C14.7437 4.31748 14.7977 4.30713 14.8538 4.30713C15.1433 4.30713 15.4321 4.32192 15.7201 4.35076C16.0081 4.37961 16.2939 4.42324 16.5776 4.48019C16.8612 4.53788 17.1412 4.60962 17.4183 4.69467C17.6954 4.78046 17.9674 4.87883 18.235 4.99198C18.5019 5.1044 18.7636 5.22939 19.0188 5.36769C19.2733 5.50674 19.5212 5.65761 19.7619 5.82032C20.0025 5.98377 20.2351 6.15831 20.4582 6.34469C20.6821 6.53106 20.8964 6.72779 21.1013 6.93487C21.3055 7.1427 21.4995 7.36014 21.6832 7.58719C21.867 7.8135 22.039 8.04943 22.2002 8.29349C22.3606 8.53756 22.5094 8.78901 22.6464 9.04713C22.7828 9.30598 22.906 9.5715 23.0169 9.84218C23.1284 10.1136 23.2254 10.3895 23.31 10.6705C23.3938 10.9516 23.4646 11.2356 23.5214 11.5233C23.5776 11.811 23.6206 12.1009 23.6491 12.393C23.6775 12.6851 23.6921 12.978 23.6921 13.2716C23.6921 13.3286 23.6819 13.3833 23.66 13.4358C23.6388 13.4883 23.6082 13.5342 23.5688 13.5749C23.5287 13.6148 23.4835 13.6459 23.4318 13.6673C23.38 13.6895 23.326 13.6999 23.2699 13.6999C23.2137 13.6999 23.1598 13.6895 23.1087 13.6673C23.057 13.6459 23.011 13.6148 22.9717 13.5749C22.9316 13.5342 22.9009 13.4883 22.8798 13.4358C22.8586 13.3833 22.8477 13.3286 22.8477 13.2716C22.8477 13.0061 22.8346 12.7414 22.8083 12.4773C22.7821 12.2133 22.7442 11.9507 22.6924 11.6904C22.6413 11.4301 22.5779 11.1734 22.5013 10.919C22.4255 10.6653 22.3373 10.4154 22.2367 10.1706C22.1368 9.92502 22.0245 9.68539 21.9012 9.45168C21.7773 9.21723 21.6431 8.99018 21.498 8.76905C21.3522 8.54865 21.1961 8.33565 21.0306 8.13078C20.8644 7.92518 20.6886 7.72919 20.5034 7.54133C20.3189 7.35348 20.125 7.17524 19.9223 7.00661C19.7203 6.83873 19.5103 6.68046 19.293 6.53254C19.075 6.38536 18.8511 6.24928 18.62 6.12355C18.3896 5.99856 18.1533 5.88466 17.9112 5.78334C17.6699 5.68128 17.4234 5.59179 17.1733 5.51487C16.9225 5.43721 16.6695 5.37287 16.4128 5.3211C16.1561 5.26859 15.8973 5.23013 15.637 5.20351C15.3766 5.17688 15.1156 5.16357 14.8538 5.16357C14.7977 5.16357 14.7437 5.15247 14.692 5.13103C14.6402 5.10958 14.595 5.07852 14.5549 5.03784C14.5155 4.9979 14.4849 4.95131 14.4637 4.8988C14.4418 4.84703 14.4316 4.7923 14.4316 4.73535Z" fill="#5297FF"/>
<g id="Clip path group">
<mask id="mask0_124_962" style="mask-type:luminance" maskUnits="userSpaceOnUse" x="14" y="0" width="15" height="14">
<g id="a62f8103dd">
<path id="Vector_2" d="M14.2803 0H28.0003V13.8332H14.2803V0Z" fill="white"/>
</g>
</mask>
<g mask="url(#mask0_124_962)">
<g id="Group">
<path id="Vector_3" d="M27.9519 13.2713C27.9519 13.3282 27.9417 13.383 27.9198 13.4355C27.8986 13.488 27.868 13.5339 27.8286 13.5745C27.7893 13.6145 27.7433 13.6455 27.6916 13.667C27.6398 13.6892 27.5858 13.6995 27.5297 13.6995C27.4735 13.6995 27.4203 13.6892 27.3685 13.667C27.3168 13.6455 27.2708 13.6145 27.2315 13.5745C27.1914 13.5339 27.1607 13.488 27.1396 13.4355C27.1184 13.383 27.1075 13.3282 27.1075 13.2713C27.1075 13.0679 27.1024 12.8645 27.0922 12.6619C27.082 12.4585 27.0674 12.2558 27.0477 12.0532C27.028 11.8506 27.0032 11.6494 26.9733 11.4482C26.9442 11.2471 26.9099 11.0466 26.8705 10.8469C26.8311 10.6473 26.7874 10.449 26.7385 10.2516C26.6897 10.0548 26.6365 9.85885 26.5781 9.66434C26.5198 9.46909 26.4563 9.27606 26.3893 9.08525C26.3215 8.8937 26.2493 8.70362 26.1727 8.51577C26.0954 8.32791 26.0145 8.14228 25.9284 7.95812C25.8431 7.7747 25.7527 7.59277 25.6579 7.41379C25.5638 7.23407 25.4647 7.05731 25.3619 6.88276C25.2583 6.70822 25.1511 6.53664 25.0396 6.36727C24.928 6.19791 24.8128 6.03224 24.6932 5.86879C24.5744 5.70535 24.4504 5.54486 24.3235 5.38806C24.1959 5.23053 24.0654 5.0767 23.9305 4.92582C23.7963 4.77495 23.6578 4.62777 23.5163 4.48429C23.3742 4.34007 23.2291 4.19955 23.0803 4.06347C22.9323 3.92664 22.7806 3.79352 22.6253 3.66483C22.47 3.5354 22.3125 3.41041 22.1513 3.28912C21.9902 3.16783 21.8261 3.05097 21.6599 2.93782C21.4929 2.82466 21.3237 2.71594 21.1517 2.61092C20.9796 2.50664 20.8053 2.40606 20.6288 2.31065C20.4517 2.2145 20.273 2.1228 20.0914 2.03552C19.9106 1.94899 19.7269 1.86616 19.5416 1.7885C19.3564 1.71011 19.1698 1.63689 18.9809 1.56811C18.7921 1.49933 18.6018 1.43572 18.41 1.37655C18.2182 1.31739 18.025 1.26266 17.8303 1.21311C17.6363 1.16355 17.4409 1.11918 17.244 1.07924C17.0472 1.0393 16.8496 1.00454 16.6512 0.97422C16.4529 0.944636 16.2546 0.91949 16.0548 0.899522C15.855 0.878813 15.6552 0.864021 15.4547 0.853667C15.2549 0.843313 15.0544 0.838136 14.8538 0.838136C14.7977 0.838136 14.7437 0.827042 14.692 0.805594C14.6402 0.783407 14.595 0.753084 14.5549 0.712407C14.5155 0.672469 14.4849 0.625875 14.4637 0.573365C14.4418 0.520854 14.4316 0.466125 14.4316 0.409916C14.4316 0.352968 14.4418 0.298239 14.4637 0.245728C14.4849 0.193218 14.5155 0.146624 14.5549 0.106686C14.595 0.066749 14.6402 0.0356862 14.692 0.0134988C14.7437 -0.00794915 14.7977 -0.019043 14.8538 -0.019043C15.0682 -0.0183034 15.2826 -0.0131263 15.4962 -0.00203251C15.7106 0.00906112 15.9242 0.0253322 16.1372 0.0467801C16.3508 0.068228 16.563 0.0955927 16.7752 0.127395C16.9874 0.159937 17.1981 0.196916 17.4081 0.239812C17.6188 0.281968 17.8274 0.330041 18.0352 0.383291C18.243 0.435802 18.4501 0.494229 18.655 0.557833C18.8599 0.620698 19.0633 0.689479 19.2653 0.762698C19.4665 0.835917 19.6663 0.914313 19.8647 0.997886C20.0623 1.08146 20.2584 1.16947 20.4524 1.26266C20.6456 1.35585 20.8374 1.45347 21.0262 1.55627C21.2151 1.65834 21.401 1.76558 21.5848 1.87799C21.7693 1.98967 21.9501 2.10578 22.128 2.22708C22.3059 2.34763 22.4817 2.47262 22.6537 2.60279C22.8258 2.73221 22.9943 2.86608 23.1598 3.00364C23.3253 3.14194 23.4879 3.28394 23.6469 3.42964C23.8051 3.57608 23.9604 3.72548 24.1121 3.87931C24.2637 4.03314 24.411 4.19068 24.5554 4.3519C24.6991 4.51313 24.8391 4.67732 24.9754 4.84521C25.111 5.01309 25.243 5.18468 25.3706 5.35922C25.4982 5.53376 25.6215 5.712 25.741 5.89246C25.8599 6.07292 25.9744 6.25708 26.0845 6.44345C26.1953 6.62983 26.3003 6.81842 26.4017 7.01071C26.503 7.20227 26.5993 7.39604 26.6911 7.59277C26.7823 7.7895 26.8698 7.9877 26.9515 8.18887C27.0339 8.3893 27.1111 8.59195 27.1833 8.79681C27.2555 9.00168 27.3226 9.20802 27.3853 9.41584C27.4473 9.62367 27.5049 9.83297 27.5574 10.0438C27.6092 10.2553 27.6566 10.4668 27.6981 10.6798C27.7404 10.8935 27.7769 11.1073 27.809 11.3225C27.8403 11.5377 27.8666 11.7529 27.8877 11.9696C27.9089 12.1856 27.9249 12.4023 27.9358 12.6197C27.9468 12.8364 27.9519 13.0539 27.9519 13.2713Z" fill="#5297FF"/>
</g>
</g>
</g>
<path id="Vector_4" d="M14.4316 9.05664C14.4316 8.99969 14.4418 8.94496 14.4637 8.89245C14.4849 8.83994 14.5155 8.79408 14.5549 8.75341C14.595 8.71347 14.6402 8.68241 14.692 8.66096C14.7437 8.63877 14.7977 8.62842 14.8538 8.62842C15.0033 8.62842 15.1528 8.63655 15.3015 8.65208C15.4503 8.66762 15.5976 8.69054 15.7441 8.72013C15.8914 8.75045 16.0358 8.78817 16.1787 8.83254C16.3216 8.87692 16.4624 8.92869 16.6002 8.98712C16.7387 9.04554 16.8736 9.11063 17.0049 9.18237C17.1369 9.25411 17.2645 9.3325 17.3891 9.41682C17.5131 9.50187 17.6327 9.5921 17.7486 9.68898C17.8638 9.78513 17.9739 9.88719 18.0797 9.99443C18.1854 10.1024 18.2853 10.2148 18.3801 10.3324C18.4749 10.45 18.5638 10.5713 18.647 10.6978C18.7294 10.8242 18.8059 10.9544 18.8766 11.0883C18.9466 11.2221 19.0108 11.359 19.0677 11.4995C19.1246 11.6393 19.1749 11.782 19.2186 11.9277C19.2616 12.0727 19.2981 12.2198 19.3273 12.3685C19.3564 12.5172 19.3783 12.6673 19.3929 12.8182C19.4075 12.969 19.4148 13.1207 19.4148 13.2723C19.4155 13.3292 19.4046 13.3839 19.3834 13.4372C19.3623 13.4897 19.3316 13.5363 19.2923 13.577C19.2522 13.6169 19.207 13.648 19.1545 13.6694C19.1027 13.6909 19.0487 13.7012 18.9926 13.7005C18.9372 13.6975 18.8847 13.6842 18.8344 13.6613C18.784 13.6391 18.7396 13.6073 18.7009 13.5681C18.6615 13.5289 18.6309 13.4831 18.6083 13.4328C18.5857 13.3817 18.5733 13.3285 18.5697 13.2723C18.5697 13.1488 18.5638 13.0245 18.5522 12.9017C18.5398 12.7782 18.5223 12.6555 18.4982 12.5342C18.4741 12.4121 18.445 12.2923 18.4093 12.174C18.3735 12.0549 18.3327 11.9388 18.286 11.8242C18.2394 11.7095 18.1869 11.5979 18.1293 11.4884C18.0724 11.3789 18.0097 11.2724 17.9411 11.1696C17.8733 11.0668 17.8011 10.967 17.7238 10.8708C17.6458 10.7754 17.5641 10.6837 17.4781 10.5957C17.3913 10.5084 17.3009 10.4249 17.2069 10.3465C17.1121 10.2673 17.0144 10.1941 16.913 10.1246C16.8109 10.0558 16.7066 9.99221 16.5987 9.93379C16.4908 9.87536 16.3807 9.82211 16.2677 9.77477C16.1547 9.7267 16.0402 9.68528 15.9235 9.64905C15.8061 9.61281 15.688 9.58248 15.5684 9.55882C15.4481 9.53441 15.3278 9.51592 15.206 9.50335C15.0842 9.49151 14.9625 9.48486 14.84 9.48486C14.7853 9.48338 14.7328 9.47081 14.6825 9.44862C14.6329 9.42569 14.5884 9.39463 14.5505 9.35469C14.5118 9.31475 14.4827 9.2689 14.4623 9.21713C14.4418 9.1661 14.4316 9.11211 14.4316 9.05664Z" fill="#5297FF"/>
<g id="Clip path group_2">
<mask id="mask1_124_962" style="mask-type:luminance" maskUnits="userSpaceOnUse" x="0" y="0" width="27" height="28">
<g id="d5ce6e0502">
<path id="Vector_5" d="M0 0.958496H26.6V28.0001H0V0.958496Z" fill="white"/>
</g>
</mask>
<g mask="url(#mask1_124_962)">
<g id="Group_2">
<path id="Vector_6" d="M26.5048 22.4439V23.2746C26.5034 23.5988 26.4414 23.9112 26.3182 24.2103C26.1957 24.5101 26.0214 24.7744 25.7954 25.0039L23.5845 27.23C23.3614 27.455 23.1047 27.6282 22.8145 27.7511C22.5243 27.8733 22.2224 27.9355 21.9082 27.9369H21.809C21.4583 27.9214 21.1075 27.8977 20.7575 27.8659C20.4075 27.834 20.0583 27.7941 19.7104 27.746C19.3619 27.6978 19.0155 27.6408 18.6699 27.5764C18.3243 27.512 17.9801 27.4387 17.6374 27.358C17.2954 27.2773 16.9549 27.1885 16.6173 27.0915C16.279 26.9945 15.9428 26.8902 15.6096 26.7769C15.2764 26.6644 14.9453 26.5437 14.6179 26.4156C14.2898 26.2876 13.9646 26.1514 13.643 26.0077C13.3215 25.8641 13.0036 25.7131 12.6886 25.5547C12.3736 25.3955 12.0629 25.2297 11.7552 25.0564C11.4482 24.8832 11.1449 24.7026 10.846 24.5153C10.547 24.328 10.2524 24.1333 9.96293 23.9319C9.67272 23.7306 9.38762 23.5226 9.10689 23.3071C8.82616 23.0924 8.55053 22.8711 8.28001 22.6431C8.00949 22.4158 7.7448 22.1811 7.48522 21.9413C7.22563 21.7007 6.97115 21.4542 6.72251 21.2025C6.47459 20.95 6.23178 20.6917 5.9948 20.4281C5.75855 20.1646 5.52813 19.8951 5.30355 19.6204C5.07896 19.3458 4.86094 19.066 4.64948 18.7809C4.43802 18.4967 4.23313 18.2065 4.0348 17.9118C3.83646 17.6179 3.64469 17.3189 3.46021 17.0153C3.27573 16.7118 3.09781 16.4038 2.92719 16.0914C2.75656 15.7798 2.59323 15.4644 2.43719 15.1446C2.28115 14.8248 2.1324 14.502 1.99094 14.1748C1.84948 13.8483 1.71531 13.5189 1.58917 13.1858C1.46302 12.8526 1.34417 12.5173 1.23333 12.1782C1.1225 11.8399 1.01896 11.4986 0.924165 11.1559C0.828644 10.8124 0.741144 10.4667 0.661665 10.1195C0.582185 9.77152 0.509998 9.42284 0.44656 9.07194C0.383123 8.72104 0.327706 8.36866 0.28031 8.01479C0.232185 7.66167 0.192809 7.30707 0.161455 6.95173C0.13083 6.59638 0.107497 6.2403 0.0921845 5.88422C0.0746844 5.54368 0.126455 5.21499 0.246768 4.89666C0.36781 4.57907 0.546456 4.29924 0.784165 4.05938L2.97677 1.83701C3.20281 1.60826 3.46386 1.43133 3.75844 1.30622C4.05375 1.1811 4.36073 1.11818 4.68011 1.1167H5.48438C5.60542 1.1167 5.72574 1.12632 5.84605 1.14483C5.96563 1.16334 6.08303 1.19073 6.19897 1.22774C6.31417 1.26476 6.42647 1.30992 6.53584 1.36322C6.64449 1.41726 6.74876 1.47945 6.84865 1.54903C6.94855 1.61936 7.04261 1.69635 7.13084 1.78001C7.21907 1.8644 7.30074 1.95472 7.37511 2.0517C7.45022 2.14867 7.5173 2.25084 7.57709 2.35744C7.63688 2.46478 7.68793 2.57583 7.73095 2.69057L9.67272 7.92744C9.75001 8.14138 9.79814 8.36125 9.81564 8.58852C9.83241 8.8158 9.81928 9.04085 9.77481 9.26442C9.73033 9.48725 9.65668 9.70045 9.55387 9.90255C9.45105 10.1047 9.32272 10.289 9.16887 10.4548L8.36459 11.3173C8.30407 11.3824 8.24939 11.452 8.20053 11.5268C8.15168 11.6008 8.10866 11.6793 8.07293 11.7607C8.0372 11.8429 8.00876 11.9273 7.98689 12.0139C7.96574 12.1012 7.95189 12.1893 7.94459 12.2782C7.93803 12.3677 7.93876 12.4566 7.94751 12.5462C7.95553 12.635 7.97157 12.7231 7.99418 12.809C8.01751 12.8956 8.04814 12.9792 8.08532 13.0607C8.12251 13.1421 8.16626 13.2191 8.21657 13.2924C9.06605 14.5464 10.0198 15.7132 11.0764 16.7925C12.1337 17.8719 13.277 18.8461 14.5071 19.7159C14.58 19.7641 14.6559 19.8055 14.7353 19.8411C14.8148 19.8758 14.8965 19.904 14.9803 19.9247C15.0642 19.9462 15.1495 19.9602 15.2363 19.9669C15.3223 19.9736 15.4084 19.9728 15.4951 19.9647C15.5812 19.9565 15.6665 19.9417 15.7496 19.9188C15.8335 19.8966 15.9151 19.867 15.9939 19.8307C16.0726 19.7944 16.1477 19.7515 16.2199 19.7026C16.2914 19.6538 16.3592 19.599 16.4219 19.5383L17.2845 18.7077C17.4478 18.5522 17.6294 18.4219 17.8285 18.3175C18.0283 18.2131 18.2375 18.1384 18.4577 18.0932C18.6772 18.048 18.8989 18.034 19.1227 18.0518C19.3466 18.0695 19.5632 18.1176 19.7739 18.1968L24.932 20.1675C25.0465 20.2105 25.1566 20.2623 25.2631 20.3215C25.3695 20.3815 25.4709 20.4488 25.5671 20.5243C25.6634 20.5999 25.7538 20.682 25.8376 20.7716C25.9215 20.8604 25.9988 20.9559 26.0681 21.0566C26.1381 21.158 26.2 21.2639 26.254 21.3742C26.308 21.4853 26.3539 21.5993 26.3911 21.717C26.4275 21.8347 26.456 21.9539 26.4749 22.076C26.4939 22.1982 26.5041 22.321 26.5048 22.4439Z" fill="#5297FF"/>
</g>
</g>
</g>
</g>
</svg>
