<svg width="30" height="30" viewBox="0 0 30 30" fill="none" xmlns="http://www.w3.org/2000/svg">
<g id="Group">
<path id="Vector" d="M3 0.00622559C1.34375 0.00622559 0 1.22498 0 2.73123V24.5437C0 26.05 1.34375 27.2687 3 27.2687H18.6424C18.2153 26.3656 18 25.4156 18 24.5437H10.5V21.8156H18.6458C18.25 21.0625 18 20.1625 18 19.0906H16.5V16.3625H18.6007C19.1111 15.2531 19.9306 14.3031 21 13.6094V10.9125H24V2.73123C24 1.22498 22.6562 0.00622559 21 0.00622559H3ZM3 2.73123H21V8.18435H3V2.73123ZM4.5 10.9125H7.5V13.6375H4.5V10.9125ZM10.5 10.9125H13.5V13.6375H10.5V10.9125ZM16.5 10.9125H19.5V13.6375H16.5V10.9125ZM24 13.6375V15.2719C22.5 15.6812 21 16.9094 21 19.0906C21 21.6812 23.3993 22.5 24.8993 23.0437C26.6979 23.725 27 23.8625 27 24.5437C27 25.225 26.7014 25.9062 25.5 25.9062C24.2986 25.9062 24 25.225 24 24.5437H21C21 25.9062 21.8993 27.8156 24 28.3594V29.9937H27V28.3594C29.1007 27.8156 30 25.9062 30 24.5437C30 21.9531 27.6007 21.1343 26.1007 20.5906C24.3021 19.9062 24 19.7719 24 19.0906C24 18 24.75 17.7281 25.5 17.7281C26.7014 17.7281 27 18.4094 27 19.0906H30C30 17.7281 29.1007 15.8187 27 15.2719V13.6375H24ZM4.5 16.3625H7.5V19.0906H4.5V16.3625ZM10.5 16.3625H13.5V19.0906H10.5V16.3625ZM4.5 21.8156H7.5V24.5437H4.5V21.8156Z" fill="white"/>
</g>
</svg>
