<svg width="28" height="25" viewBox="0 0 28 25" fill="none" xmlns="http://www.w3.org/2000/svg">
<g id="Vector">
<path id="Vector_2" d="M18 6.75V3.875C18 3.1125 17.7366 2.38124 17.2678 1.84207C16.7989 1.3029 16.163 1 15.5 1H3.5C2.83696 1 2.20107 1.3029 1.73223 1.84207C1.26339 2.38124 1 3.1125 1 3.875V21.125C1 21.8875 1.26339 22.6188 1.73223 23.1579C2.20107 23.6971 2.83696 24 3.5 24H15.5C16.163 24 16.7989 23.6971 17.2678 23.1579C17.7366 22.6188 18 21.8875 18 21.125V18.25M22 6.75L27 12.5M27 12.5L22 18.25M27 12.5H9.9375" stroke="white" stroke-width="2" stroke-linecap="round" stroke-linejoin="round"/>
</g>
</svg>
