<svg width="32" height="32" viewBox="0 0 32 32" fill="none" xmlns="http://www.w3.org/2000/svg">
<g id="Group">
<path id="Vector" fill-rule="evenodd" clip-rule="evenodd" d="M26.761 0C25.1975 0 23.9289 1.35065 23.9289 3.01515C23.9289 4.68182 25.1975 6.0303 26.761 6.0303C28.3244 6.0303 29.593 4.68182 29.593 3.01515C29.593 1.35065 28.3244 0 26.761 0ZM15.1523 8.31385C17.8989 8.31385 20.1272 10.6861 20.1272 13.6126C20.1272 17.6948 16.4189 21.3658 15.4044 22.2922C15.258 22.4264 15.0466 22.4264 14.8982 22.2922C13.8857 21.3658 10.1775 17.6948 10.1775 13.6126C10.1775 10.6861 12.4036 8.31385 15.1523 8.31385ZM11.8059 13.7706C12.7289 12.7879 13.9406 12.2944 15.1523 12.2944C16.364 12.2944 17.5757 12.7879 18.4987 13.7706C18.702 13.987 19.0293 13.987 19.2326 13.7706C19.4339 13.5563 19.4339 13.2056 19.2326 12.9913C18.1063 11.7922 16.6283 11.1905 15.1523 11.1905C13.6763 11.1905 12.1983 11.7922 11.072 12.9913C10.8707 13.2056 10.8707 13.5563 11.072 13.7706C11.2753 13.987 11.6026 13.987 11.8059 13.7706ZM14.4164 16.6299C14.4164 17.0628 14.7457 17.4134 15.1523 17.4134C15.5589 17.4134 15.8883 17.0628 15.8883 16.6299C15.8883 16.197 15.5589 15.8463 15.1523 15.8463C14.7457 15.8463 14.4164 16.197 14.4164 16.6299ZM13.7861 15.881C14.1622 15.4784 14.6583 15.2771 15.1523 15.2771C15.6463 15.2771 16.1424 15.4784 16.5185 15.881C16.7218 16.0952 17.0491 16.0952 17.2504 15.881C17.4537 15.6645 17.4537 15.316 17.2504 15.0996C16.671 14.4827 15.9127 14.1732 15.1523 14.1732C14.392 14.1732 13.6316 14.4827 13.0522 15.0996C12.8509 15.316 12.8509 15.6645 13.0522 15.881C13.2555 16.0952 13.5828 16.0952 13.7861 15.881ZM12.796 14.8268C13.4466 14.132 14.2984 13.7857 15.1523 13.7857C16.0062 13.7857 16.858 14.132 17.5086 14.8268C17.7119 15.0411 18.0392 15.0411 18.2425 14.8268C18.4438 14.6104 18.4438 14.2619 18.2425 14.0455C17.3887 13.1364 16.2705 12.6818 15.1523 12.6818C14.0341 12.6818 12.916 13.1364 12.0621 14.0455C11.8608 14.2619 11.8608 14.6104 12.0621 14.8268C12.2654 15.0411 12.5927 15.0411 12.796 14.8268ZM17.9396 21.1797C17.3419 21.9004 16.7076 22.5563 16.0814 23.1299C15.5467 23.619 14.7579 23.619 14.2232 23.1299C13.597 22.5563 12.9627 21.9004 12.365 21.1797C10.7488 21.4221 9.66514 21.868 9.66514 22.3788C9.66514 23.1472 12.1231 23.7727 15.1523 23.7727C18.1815 23.7727 20.6395 23.1494 20.6395 22.3788C20.6395 21.868 19.5538 21.4221 17.9396 21.1797ZM12.7127 28.5974H25.4679C26.4662 28.5974 27.2794 27.7316 27.2794 26.6688V16.5931L28.0967 17.6515C28.2776 17.8874 28.6029 17.9199 28.8245 17.7273C29.0441 17.5346 29.0766 17.1883 28.8956 16.9545L27.1594 14.71C26.95 14.4372 26.5597 14.4437 26.3564 14.7164L24.6263 16.9545C24.4453 17.1883 24.4778 17.5346 24.6974 17.7273C24.919 17.9199 25.2443 17.8874 25.4252 17.6515L26.2425 16.5931V26.6688C26.2425 27.1212 25.8949 27.4935 25.4679 27.4935H12.7127C12.426 27.4935 12.1942 27.7403 12.1942 28.0455C12.1942 28.3506 12.426 28.5974 12.7127 28.5974ZM3.11266 15.7381L4.84888 17.9827C5.05828 18.2532 5.44862 18.2468 5.65193 17.974L7.38204 15.7381C7.56298 15.5022 7.53045 15.1558 7.31089 14.9632C7.08929 14.7706 6.764 14.8052 6.58306 15.039L5.76578 16.0974V6.02165C5.76578 5.56926 6.11343 5.19697 6.54037 5.19697H19.2956C19.5823 5.19697 19.8141 4.95022 19.8141 4.64502C19.8141 4.34199 19.5823 4.09524 19.2956 4.09524H6.54037C5.54214 4.09524 4.72893 4.95887 4.72893 6.02165V16.0974L3.91165 15.039C3.73071 14.8052 3.40542 14.7706 3.18382 14.9632C2.96425 15.1558 2.93172 15.5022 3.11266 15.7381ZM0.0244818 31.5541C0.239983 28.6926 2.50682 26.4221 5.24735 26.4221C7.98789 26.4221 10.2547 28.6926 10.4702 31.5541C10.4885 31.7965 10.3096 32 10.0819 32H0.412792C0.185092 32 0.00618463 31.7965 0.0244818 31.5541ZM5.24735 19.7013C3.68395 19.7013 2.41533 21.0519 2.41533 22.7164C2.41533 24.3831 3.68395 25.7316 5.24735 25.7316C6.81076 25.7316 8.07937 24.381 8.07937 22.7164C8.07937 21.0519 6.81076 19.7013 5.24735 19.7013ZM21.5381 11.8528C21.7536 8.99134 24.0204 6.72078 26.761 6.72078C29.5015 6.72078 31.7663 8.99134 31.9838 11.8528C32.0021 12.0952 31.8232 12.3009 31.5955 12.3009H21.9264C21.6987 12.3009 21.5198 12.0952 21.5381 11.8528Z" fill="white"/>
</g>
</svg>
