<svg width="28" height="28" viewBox="0 0 28 28" fill="none" xmlns="http://www.w3.org/2000/svg">
<g id="Group">
<path id="Vector" d="M15.7478 0C14.9917 0 14.2715 0.0426281 13.7554 0.560897L0.495833 13.8183C0.177244 14.1369 0 14.5609 0 15.0119C0 15.4628 0.177244 15.8869 0.495833 16.2055L10.6279 26.3397C10.9465 26.6583 11.3705 26.8333 11.8215 26.8333C12.2724 26.8333 12.6942 26.6583 13.0151 26.3397L15.4045 23.9481C15.2542 23.3782 15.1667 22.7837 15.1667 22.1667C15.1667 20.1788 16.1179 18.3907 17.5987 17.0625C17.8971 16.7955 22.8667 13.2933 22.8667 13.2933C23.1718 13.0644 23.5353 12.9433 23.9167 12.9433C24.4641 12.9433 24.9891 13.208 25.3144 13.6455C25.3728 13.7218 25.4221 13.8048 25.4647 13.8878L26.2702 13.0801C26.8401 12.5147 26.8378 11.6958 26.8333 10.9083V2.04167C26.8333 0.915384 25.9179 0 24.7917 0H15.7478ZM21.5833 3.5C22.5503 3.5 23.3333 4.28301 23.3333 5.25C23.3333 6.21699 22.5503 7 21.5833 7C20.6186 7 19.8333 6.21699 19.8333 5.25C19.8333 4.28301 20.6186 3.5 21.5833 3.5ZM23.9279 14.1077C23.7978 14.1054 23.6721 14.1481 23.5667 14.2288L20.7016 16.3737C20.6612 16.4006 20.6208 16.4298 20.5849 16.4635L20.1833 16.7641L20.4817 17.1635C20.5064 17.2106 20.5401 17.2532 20.5782 17.2936L22.7455 20.1811C22.9407 20.4413 23.3042 20.4952 23.5622 20.3C23.8224 20.1071 23.874 19.7413 23.6811 19.4856L22.1936 17.5C24.7647 17.5157 26.8333 19.591 26.8333 22.1667C26.8333 24.7513 24.7513 26.8333 22.1667 26.8333C19.5821 26.8333 17.5 24.7513 17.5 22.1667C17.5 20.7824 18.099 19.5439 19.0548 18.6869C19.2119 18.55 19.2859 18.3391 19.241 18.1304C19.2006 17.9263 19.0503 17.7603 18.8506 17.6929C18.651 17.6301 18.4311 17.6772 18.2763 17.8186C17.0827 18.8865 16.3333 20.4436 16.3333 22.1667C16.3333 25.3817 18.9516 28 22.1667 28C25.3795 28 28 25.3817 28 22.1667C28 19.1199 25.6487 16.6138 22.6692 16.358L24.2667 15.1599C24.4686 15.0141 24.5561 14.7516 24.4776 14.5138C24.4035 14.2737 24.1814 14.1099 23.9279 14.1077Z" fill="white"/>
</g>
</svg>
